PathFileType	3	(X/Y/Z)	RCH0000002 BBF 13.c3d
DataRate	CameraRate	NumFrames	NumMarkers	Units	OrigDataRate	OrigDataStartFrame	OrigNumFrames
100.0	100.0	13	23	mm	100.0	199	457
Frame#	Time	T2			T10			MAN			LASI			RASI			LPSI			RPSI			LPAT			LKNE			LANK			LMED			LHEE			LTOE			RPAT			RKNE			RANK			RMED			RHEE			RTOE			RTHI			LTHI			RTIB			LTIB			
		X1	Y1	Z1	X2	Y2	Z2	X3	Y3	Z3	X4	Y4	Z4	X5	Y5	Z5	X6	Y6	Z6	X7	Y7	Z7	X8	Y8	Z8	X9	Y9	Z9	X10	Y10	Z10	X11	Y11	Z11	X12	Y12	Z12	X13	Y13	Z13	X14	Y14	Z14	X15	Y15	Z15	X16	Y16	Z16	X17	Y17	Z17	X18	Y18	Z18	X19	Y19	Z19	X20	Y20	Z20	X21	Y21	Z21	X22	Y22	Z22	X23	Y23	Z23	

199	1.980	-632.35661	-25.25737	996.71946	-637.71793	-50.93197	809.57813	-504.04394	-8.20943	957.77805	-584.72988	47.58656	658.80478	-533.56441	-121.56984	657.70818	-670.30900	-33.18641	716.20201	-651.28556	-100.34972	715.39039	-606.53858	4.51644	384.96502	-662.37079	55.34562	349.89603	-722.21048	44.80665	78.99184	-707.88794	-22.40532	98.75388	-754.20681	0.52993	112.87827	-668.14183	15.60339	72.96620	-460.45338	-76.98117	396.25390	-507.43122	-132.24571	361.89781	-661.55503	-163.53833	144.45591	-669.65327	-94.31667	153.55285	-689.69094	-131.43971	190.74195	-629.01443	-127.47331	112.84578	-508.18202	-202.54322	472.58587	-662.49143	124.27873	475.46172	-568.12811	-210.65682	278.11374	-703.29387	114.06036	234.85924	
200	1.990	-621.99516	-25.48028	996.65584	-628.91990	-51.21266	809.22016	-493.96184	-8.65129	956.44458	-576.63058	48.54439	658.82875	-523.17212	-120.08995	657.25633	-661.50252	-34.00498	715.05870	-641.81175	-100.76628	713.76854	-601.37453	6.01512	384.12845	-657.92160	56.52603	350.06385	-721.15004	46.02367	79.60251	-706.59034	-21.08088	99.56939	-752.71546	1.92995	114.14539	-667.13053	16.71464	72.96581	-440.09460	-74.87665	402.05514	-485.40701	-129.92147	365.52062	-631.25206	-160.81246	143.02842	-639.54919	-91.54314	151.61151	-661.24844	-128.69011	187.99366	-597.08612	-124.87582	113.12771	-490.94315	-200.86680	475.70458	-656.69758	125.05309	475.80667	-543.00200	-208.21226	279.82295	-700.18309	115.36061	235.34748	
201	2.000	-611.38231	-25.76304	996.20478	-619.95242	-51.69447	808.53355	-483.64442	-9.13343	954.64659	-568.34674	49.39050	658.63441	-512.73035	-118.73476	656.33849	-652.55938	-34.95043	713.63026	-632.23511	-101.32379	711.74617	-596.24235	7.59362	383.13917	-653.49074	57.83703	350.15194	-720.13691	47.42349	80.10775	-705.44337	-19.57429	100.30560	-751.32620	3.57882	115.30940	-666.19417	17.94754	72.90244	-420.49752	-72.53595	407.59517	-463.91507	-127.36521	368.93898	-600.60388	-157.91025	141.33228	-609.21340	-88.61921	149.36776	-632.50652	-125.83890	184.83414	-564.98364	-122.01328	113.17531	-474.00359	-199.01651	478.43472	-650.73958	125.92904	476.06325	-517.96827	-205.57977	281.25435	-697.01797	116.83829	235.73612	
202	2.010	-600.50636	-26.15082	995.39434	-610.75627	-52.36935	807.55006	-473.07363	-9.68039	952.46391	-559.82101	50.14050	658.24527	-502.18487	-117.48164	654.99152	-643.41383	-35.98142	711.95757	-622.49154	-101.98501	709.37187	-591.13861	9.21860	382.01823	-649.09589	59.22726	350.17825	-719.20451	48.89668	80.54673	-704.41869	-17.99143	100.98491	-750.03666	5.33111	116.40493	-665.34624	19.23595	72.79701	-401.80324	-69.91235	412.70944	-443.11200	-124.56134	372.03372	-569.76409	-154.87395	139.32174	-578.85648	-85.60494	146.77322	-603.63277	-122.96070	181.21943	-532.89566	-118.90430	112.92751	-457.40371	-196.95970	480.70117	-644.62069	126.88394	476.23116	-493.13353	-202.76611	282.32042	-693.89574	118.40316	236.05140	
203	2.020	-589.36775	-26.68342	994.25310	-601.27576	-53.21774	806.29614	-462.24089	-10.31297	949.98187	-550.99397	50.81152	657.67686	-491.48071	-116.30636	653.25784	-634.00034	-37.05165	710.07338	-612.51709	-102.70723	706.69438	-586.00810	10.85050	380.78022	-644.69581	60.63708	350.14984	-718.36608	50.33786	80.96813	-703.47322	-16.43679	101.63410	-748.82120	7.04809	117.47822	-664.58795	20.51123	72.67126	-384.12993	-66.96630	417.21011	-423.14512	-121.50420	374.66274	-538.93412	-151.74877	136.93396	-548.73560	-82.56439	143.76726	-574.83902	-120.13677	177.09996	-501.05871	-115.57145	112.30648	-441.17651	-194.67027	482.41778	-638.31252	127.88686	476.30018	-468.61555	-199.78090	282.91401	-690.85643	119.96121	236.32299	
204	2.030	-577.97833	-27.39311	992.80891	-591.46024	-54.21045	804.79220	-451.14667	-11.04667	947.28691	-541.80814	51.42198	656.93564	-480.56417	-115.18421	651.18294	-624.25709	-38.11357	708.00243	-602.25061	-103.44614	703.76226	-580.74774	12.44929	379.42903	-640.19390	62.00652	350.05884	-717.61221	51.65558	81.42660	-702.55235	-15.00361	102.28255	-747.63179	8.61063	118.58398	-663.90767	21.70839	72.54623	-367.56173	-63.66814	420.89867	-404.13993	-118.19924	376.67084	-508.37360	-148.58308	134.10138	-519.15481	-79.56247	140.28926	-546.38627	-117.44825	172.43408	-469.76245	-112.04635	111.22970	-425.34089	-192.12941	483.49391	-631.75780	128.90333	476.24898	-444.54654	-196.63671	282.92168	-687.87825	121.42510	236.57853	
205	2.040	-566.35988	-28.30293	991.08850	-581.26591	-55.31059	803.05314	-439.79969	-11.89056	944.46280	-532.21222	51.99084	656.01875	-469.38566	-114.09166	648.81445	-614.12983	-39.12121	705.76266	-591.63716	-104.15891	700.62477	-575.21499	13.97883	377.95473	-635.44697	63.28160	349.87981	-716.90942	52.77964	81.97904	-701.59261	-13.76637	102.96057	-746.39957	9.92877	119.78167	-663.28044	22.77091	72.44105	-352.14019	-60.00208	423.58373	-386.18951	-114.66427	377.90464	-478.40563	-145.42895	130.76606	-490.46050	-76.66218	136.29288	-518.58528	-114.96915	167.20260	-439.34920	-108.37459	109.62438	-409.89786	-189.32739	483.84448	-624.87579	129.89911	476.04487	-421.07668	-193.35008	282.24041	-684.87882	122.72258	236.83831	
206	2.050	-554.54210	-29.42550	989.11798	-570.65792	-56.47535	801.09023	-428.21578	-12.84651	941.58758	-522.16508	52.53611	654.91477	-457.90314	-113.00843	646.20258	-603.57588	-40.03246	703.36763	-580.63200	-104.80662	697.33358	-569.23975	15.40973	376.33236	-630.27808	64.41902	349.56918	-716.19954	53.66553	82.68058	-700.52370	-12.77573	103.69787	-745.03687	10.94796	121.13147	-662.66752	23.65423	72.37201	-337.85961	-55.97136	425.10214	-369.34753	-110.93092	378.23093	-449.41398	-142.34282	126.89433	-463.03101	-73.92241	131.76076	-491.79058	-112.76042	161.42238	-410.20600	-104.61950	107.44254	-394.83086	-186.26645	483.40206	-617.56950	130.84280	475.64472	-398.37610	-189.94330	280.79489	-681.72130	123.80220	237.11065	
207	2.060	-542.56040	-30.76219	986.92407	-559.61257	-57.65767	798.91406	-416.41655	-13.90897	938.73158	-511.63929	53.07308	653.60552	-446.08604	-111.92006	643.40181	-592.56811	-40.81057	700.82957	-569.20478	-105.35586	693.94508	-562.63872	16.72039	374.52309	-624.49201	65.38853	349.06717	-715.39965	54.29618	83.58080	-699.26954	-12.05605	104.52236	-743.43953	11.65159	122.69015	-662.01571	24.32790	72.35216	-324.66735	-51.60423	425.34086	-353.62585	-107.04599	377.55608	-421.82951	-139.38553	122.49002	-437.25933	-71.39638	126.71731	-466.38637	-110.86573	155.15709	-382.74768	-100.86324	104.67453	-380.11025	-182.96486	482.12913	-609.73412	131.70712	474.99752	-376.63367	-186.44704	278.55277	-678.22467	124.63643	237.38870	
208	2.070	-530.45350	-32.30255	984.53598	-548.11951	-58.80772	796.53827	-404.42803	-15.06512	935.95649	-500.62371	53.61213	652.06913	-433.91891	-110.82049	640.47318	-581.09817	-41.42520	698.16295	-557.34342	-105.77956	690.52266	-555.23059	17.89645	372.47802	-617.89201	66.17342	348.30262	-714.40282	54.68123	84.72043	-697.74851	-11.60540	105.45929	-741.48924	12.06029	124.50705	-661.25643	24.77652	72.39156	-312.46936	-46.95966	424.25657	-338.99732	-103.07255	375.84345	-396.10500	-136.62138	117.60413	-413.52917	-69.13053	121.23736	-442.76384	-109.30981	148.52305	-357.39115	-97.20462	101.35869	-365.70135	-179.46167	480.02863	-601.26564	132.46902	474.04854	-356.05076	-182.90343	275.53530	-674.17716	125.22201	237.64946	
209	2.080	-518.26126	-34.02408	981.98762	-536.18359	-59.87430	793.98352	-392.27932	-16.29544	933.31542	-489.12494	54.15677	650.28412	-421.40457	-109.71443	637.48656	-569.17868	-41.85290	695.38824	-545.05711	-106.05743	687.13856	-546.85098	18.92889	370.14474	-610.29615	66.76908	347.20054	-713.07969	54.85400	86.12886	-695.87308	-11.39781	106.53077	-739.05644	12.22776	126.62045	-660.30477	24.99968	72.49813	-301.14095	-42.13153	421.88960	-325.40330	-99.09050	373.12594	-372.67908	-134.11580	112.33913	-392.18572	-67.16377	115.44864	-421.29067	-108.09943	141.68841	-334.52231	-93.75315	97.58493	-351.57447	-175.82116	477.15123	-592.06913	133.10888	472.74528	-336.82946	-179.36899	271.82130	-669.35206	125.57764	237.85533	
210	2.090	-506.02271	-35.89232	979.31983	-523.82613	-60.80641	791.28134	-380.00150	-17.57475	930.85401	-477.16732	54.70202	648.23435	-408.56603	-108.61908	634.52225	-556.84377	-42.07763	692.53539	-532.37776	-106.17599	683.87467	-537.36581	19.81110	367.47631	-601.55186	67.18035	345.69199	-711.28153	54.86674	87.82279	-693.54893	-11.38746	107.75531	-736.00373	12.23359	129.05468	-659.05867	25.01122	72.67907	-290.54177	-37.24997	418.36936	-312.76496	-95.19641	369.51109	-351.93311	-131.93132	106.84616	-373.50396	-65.52682	109.52664	-402.27615	-107.22666	134.86455	-314.45907	-90.61982	93.49103	-337.71471	-172.13576	473.59797	-582.06591	133.60940	471.04477	-319.15572	-175.91669	267.54374	-663.52482	125.73938	237.95860	
211	2.100	-493.77461	-37.86138	976.58225	-511.08524	-61.55513	788.47717	-367.62672	-18.87341	928.61215	-464.79157	55.23356	645.91444	-395.44669	-107.56468	631.67117	-544.14753	-42.09097	689.64681	-519.35943	-106.12862	680.82201	-526.68167	20.53573	364.44193	-591.54734	67.41800	343.72535	-708.84510	54.78431	89.80606	-690.67421	-11.51437	109.14758	-732.19029	12.17337	131.81813	-657.39878	24.83788	72.94268	-280.53313	-32.47869	413.90913	-300.99679	-91.50217	365.17712	-334.14683	-130.12258	101.31436	-357.65894	-64.24174	103.68159	-385.93628	-106.67387	128.28945	-297.41554	-87.90594	89.25109	-324.12969	-168.52614	469.51774	-571.19924	133.95446	468.92180	-303.17976	-172.63617	262.87885	-656.49063	125.75432	237.90887	
